<mxfile host="app.diagrams.net" agent="Mozilla/5.0 (X11; Linux x86_64; rv:131.0) Gecko/20100101 Firefox/131.0" version="24.7.17">
  <diagram id="C5RBs43oDa-KdzZeNtuy" name="Page-1">
    <mxGraphModel dx="880" dy="479" grid="1" gridSize="10" guides="1" tooltips="1" connect="1" arrows="1" fold="1" page="1" pageScale="1" pageWidth="827" pageHeight="1169" math="0" shadow="0">
      <root>
        <mxCell id="WIyWlLk6GJQsqaUBKTNV-0" />
        <mxCell id="WIyWlLk6GJQsqaUBKTNV-1" parent="WIyWlLk6GJQsqaUBKTNV-0" />
        <mxCell id="VwlzXBWpfuUADv__4THp-7" value="" style="edgeStyle=orthogonalEdgeStyle;rounded=0;orthogonalLoop=1;jettySize=auto;html=1;" edge="1" parent="WIyWlLk6GJQsqaUBKTNV-1" source="VwlzXBWpfuUADv__4THp-0" target="VwlzXBWpfuUADv__4THp-6">
          <mxGeometry relative="1" as="geometry" />
        </mxCell>
        <mxCell id="VwlzXBWpfuUADv__4THp-0" value="START" style="ellipse;whiteSpace=wrap;html=1;" vertex="1" parent="WIyWlLk6GJQsqaUBKTNV-1">
          <mxGeometry x="297.5" y="210" width="90" height="40" as="geometry" />
        </mxCell>
        <mxCell id="VwlzXBWpfuUADv__4THp-10" value="" style="edgeStyle=orthogonalEdgeStyle;rounded=0;orthogonalLoop=1;jettySize=auto;html=1;" edge="1" parent="WIyWlLk6GJQsqaUBKTNV-1" source="VwlzXBWpfuUADv__4THp-3" target="VwlzXBWpfuUADv__4THp-9">
          <mxGeometry relative="1" as="geometry" />
        </mxCell>
        <mxCell id="VwlzXBWpfuUADv__4THp-3" value="&lt;div&gt;nim = 24241185&lt;/div&gt;&lt;div&gt;nimAwal = 85&lt;/div&gt;&lt;div&gt;nimAkhir = 24&lt;br&gt;&lt;/div&gt;" style="shape=parallelogram;perimeter=parallelogramPerimeter;whiteSpace=wrap;html=1;fixedSize=1;fontSize=10;" vertex="1" parent="WIyWlLk6GJQsqaUBKTNV-1">
          <mxGeometry x="282.5" y="430" width="120" height="60" as="geometry" />
        </mxCell>
        <mxCell id="VwlzXBWpfuUADv__4THp-5" value="&lt;div align=&quot;center&quot;&gt;&lt;b&gt;SOAL&lt;/b&gt;&lt;/div&gt;&lt;div&gt;1. buatlah flowchart dengan ketentuan sebagai berikut:&lt;/div&gt;&lt;div&gt;&lt;span style=&quot;white-space: pre;&quot;&gt;&#x9;&lt;/span&gt;1. Jika nim Anda genap, maka hitung luas persegi.&lt;/div&gt;&lt;div&gt;&lt;span style=&quot;white-space: pre;&quot;&gt;&#x9;&lt;/span&gt; &lt;span style=&quot;white-space: pre;&quot;&gt;&#x9;&lt;/span&gt;P = 2 digit nim terakhir.&lt;/div&gt;&lt;div&gt;&lt;span style=&quot;white-space: pre;&quot;&gt;&#x9;&lt;/span&gt;&lt;span style=&quot;white-space: pre;&quot;&gt;&#x9;&lt;/span&gt;L = 2 digit nim pertama.&lt;/div&gt;&lt;div&gt;&lt;span style=&quot;white-space: pre;&quot;&gt;&#x9;&lt;/span&gt;2, Jika nim Anda ganjil, maka hitung segitiga.&lt;/div&gt;&lt;div&gt;&lt;span style=&quot;white-space: pre;&quot;&gt;&#x9;&lt;/span&gt;&lt;span style=&quot;white-space: pre;&quot;&gt;&#x9;&lt;/span&gt;A = 2 digit nim terakhir.&lt;/div&gt;&lt;div&gt;&lt;span style=&quot;white-space: pre;&quot;&gt;&#x9;&lt;/span&gt;&lt;span style=&quot;white-space: pre;&quot;&gt;&#x9;&lt;/span&gt;B = 2 digit nim pertama.&lt;br&gt;&lt;/div&gt;" style="text;html=1;align=left;verticalAlign=middle;whiteSpace=wrap;rounded=0;" vertex="1" parent="WIyWlLk6GJQsqaUBKTNV-1">
          <mxGeometry x="210" y="70" width="310" height="125" as="geometry" />
        </mxCell>
        <mxCell id="VwlzXBWpfuUADv__4THp-8" value="" style="edgeStyle=orthogonalEdgeStyle;rounded=0;orthogonalLoop=1;jettySize=auto;html=1;" edge="1" parent="WIyWlLk6GJQsqaUBKTNV-1" source="VwlzXBWpfuUADv__4THp-6" target="VwlzXBWpfuUADv__4THp-3">
          <mxGeometry relative="1" as="geometry" />
        </mxCell>
        <mxCell id="VwlzXBWpfuUADv__4THp-6" value="menghitung luas persegi jika nim genap, sedangkan ganjil menghitung segitiga." style="shape=hexagon;perimeter=hexagonPerimeter2;whiteSpace=wrap;html=1;fixedSize=1;" vertex="1" parent="WIyWlLk6GJQsqaUBKTNV-1">
          <mxGeometry x="218.75" y="280" width="247.5" height="100" as="geometry" />
        </mxCell>
        <mxCell id="VwlzXBWpfuUADv__4THp-12" value="" style="edgeStyle=orthogonalEdgeStyle;rounded=0;orthogonalLoop=1;jettySize=auto;html=1;" edge="1" parent="WIyWlLk6GJQsqaUBKTNV-1" source="VwlzXBWpfuUADv__4THp-9" target="VwlzXBWpfuUADv__4THp-11">
          <mxGeometry relative="1" as="geometry" />
        </mxCell>
        <mxCell id="VwlzXBWpfuUADv__4THp-19" value="" style="edgeStyle=orthogonalEdgeStyle;rounded=0;orthogonalLoop=1;jettySize=auto;html=1;" edge="1" parent="WIyWlLk6GJQsqaUBKTNV-1" source="VwlzXBWpfuUADv__4THp-9" target="VwlzXBWpfuUADv__4THp-18">
          <mxGeometry relative="1" as="geometry" />
        </mxCell>
        <mxCell id="VwlzXBWpfuUADv__4THp-9" value="jika nim = genap" style="rhombus;whiteSpace=wrap;html=1;fontSize=10;" vertex="1" parent="WIyWlLk6GJQsqaUBKTNV-1">
          <mxGeometry x="263.75" y="520" width="157.5" height="150" as="geometry" />
        </mxCell>
        <mxCell id="VwlzXBWpfuUADv__4THp-25" value="" style="edgeStyle=orthogonalEdgeStyle;rounded=0;orthogonalLoop=1;jettySize=auto;html=1;" edge="1" parent="WIyWlLk6GJQsqaUBKTNV-1" source="VwlzXBWpfuUADv__4THp-11" target="VwlzXBWpfuUADv__4THp-24">
          <mxGeometry relative="1" as="geometry" />
        </mxCell>
        <mxCell id="VwlzXBWpfuUADv__4THp-11" value="&lt;div&gt;panjang = nimAkhir&lt;/div&gt;&lt;div&gt;lebar = nimAwal&lt;br&gt;&lt;/div&gt;" style="shape=parallelogram;perimeter=parallelogramPerimeter;whiteSpace=wrap;html=1;fixedSize=1;fontSize=10;" vertex="1" parent="WIyWlLk6GJQsqaUBKTNV-1">
          <mxGeometry x="282.5" y="720" width="120" height="60" as="geometry" />
        </mxCell>
        <mxCell id="VwlzXBWpfuUADv__4THp-13" value="genap" style="text;html=1;align=center;verticalAlign=middle;resizable=0;points=[];autosize=1;strokeColor=none;fillColor=none;" vertex="1" parent="WIyWlLk6GJQsqaUBKTNV-1">
          <mxGeometry x="282.5" y="690" width="60" height="30" as="geometry" />
        </mxCell>
        <mxCell id="VwlzXBWpfuUADv__4THp-15" value="ganjil" style="text;html=1;align=center;verticalAlign=middle;resizable=0;points=[];autosize=1;strokeColor=none;fillColor=none;" vertex="1" parent="WIyWlLk6GJQsqaUBKTNV-1">
          <mxGeometry x="440" y="570" width="50" height="30" as="geometry" />
        </mxCell>
        <mxCell id="VwlzXBWpfuUADv__4THp-21" value="" style="edgeStyle=orthogonalEdgeStyle;rounded=0;orthogonalLoop=1;jettySize=auto;html=1;" edge="1" parent="WIyWlLk6GJQsqaUBKTNV-1" source="VwlzXBWpfuUADv__4THp-18" target="VwlzXBWpfuUADv__4THp-20">
          <mxGeometry relative="1" as="geometry" />
        </mxCell>
        <mxCell id="VwlzXBWpfuUADv__4THp-18" value="&lt;div&gt;alas = nimAkhir&lt;/div&gt;&lt;div&gt;tinggi = nimAwal&lt;br&gt;&lt;/div&gt;" style="shape=parallelogram;perimeter=parallelogramPerimeter;whiteSpace=wrap;html=1;fixedSize=1;fontSize=10;" vertex="1" parent="WIyWlLk6GJQsqaUBKTNV-1">
          <mxGeometry x="510" y="565" width="120" height="60" as="geometry" />
        </mxCell>
        <mxCell id="VwlzXBWpfuUADv__4THp-23" value="" style="edgeStyle=orthogonalEdgeStyle;rounded=0;orthogonalLoop=1;jettySize=auto;html=1;" edge="1" parent="WIyWlLk6GJQsqaUBKTNV-1" source="VwlzXBWpfuUADv__4THp-20" target="VwlzXBWpfuUADv__4THp-22">
          <mxGeometry relative="1" as="geometry" />
        </mxCell>
        <mxCell id="VwlzXBWpfuUADv__4THp-20" value="hasil = 1/2 x alas x tinggi" style="shape=parallelogram;perimeter=parallelogramPerimeter;whiteSpace=wrap;html=1;fixedSize=1;fontSize=10;" vertex="1" parent="WIyWlLk6GJQsqaUBKTNV-1">
          <mxGeometry x="500" y="730" width="140" height="60" as="geometry" />
        </mxCell>
        <mxCell id="VwlzXBWpfuUADv__4THp-30" style="edgeStyle=orthogonalEdgeStyle;rounded=0;orthogonalLoop=1;jettySize=auto;html=1;" edge="1" parent="WIyWlLk6GJQsqaUBKTNV-1" source="VwlzXBWpfuUADv__4THp-22" target="VwlzXBWpfuUADv__4THp-28">
          <mxGeometry relative="1" as="geometry">
            <Array as="points">
              <mxPoint x="570" y="1000" />
              <mxPoint x="520" y="1000" />
              <mxPoint x="520" y="1060" />
            </Array>
          </mxGeometry>
        </mxCell>
        <mxCell id="VwlzXBWpfuUADv__4THp-22" value="tampilkan hasil" style="whiteSpace=wrap;html=1;fontSize=10;" vertex="1" parent="WIyWlLk6GJQsqaUBKTNV-1">
          <mxGeometry x="510" y="860" width="120" height="60" as="geometry" />
        </mxCell>
        <mxCell id="VwlzXBWpfuUADv__4THp-27" value="" style="edgeStyle=orthogonalEdgeStyle;rounded=0;orthogonalLoop=1;jettySize=auto;html=1;" edge="1" parent="WIyWlLk6GJQsqaUBKTNV-1" source="VwlzXBWpfuUADv__4THp-24" target="VwlzXBWpfuUADv__4THp-26">
          <mxGeometry relative="1" as="geometry" />
        </mxCell>
        <mxCell id="VwlzXBWpfuUADv__4THp-24" value="hasil = panjang x lebar" style="shape=parallelogram;perimeter=parallelogramPerimeter;whiteSpace=wrap;html=1;fixedSize=1;fontSize=10;" vertex="1" parent="WIyWlLk6GJQsqaUBKTNV-1">
          <mxGeometry x="273.75" y="800" width="137.5" height="60" as="geometry" />
        </mxCell>
        <mxCell id="VwlzXBWpfuUADv__4THp-29" value="" style="edgeStyle=orthogonalEdgeStyle;rounded=0;orthogonalLoop=1;jettySize=auto;html=1;" edge="1" parent="WIyWlLk6GJQsqaUBKTNV-1" source="VwlzXBWpfuUADv__4THp-26" target="VwlzXBWpfuUADv__4THp-28">
          <mxGeometry relative="1" as="geometry" />
        </mxCell>
        <mxCell id="VwlzXBWpfuUADv__4THp-26" value="tampilkan hasil" style="whiteSpace=wrap;html=1;fontSize=10;" vertex="1" parent="WIyWlLk6GJQsqaUBKTNV-1">
          <mxGeometry x="282.5" y="940" width="120" height="60" as="geometry" />
        </mxCell>
        <mxCell id="VwlzXBWpfuUADv__4THp-28" value="END" style="ellipse;whiteSpace=wrap;html=1;fontSize=10;" vertex="1" parent="WIyWlLk6GJQsqaUBKTNV-1">
          <mxGeometry x="425" y="1040" width="80" height="40" as="geometry" />
        </mxCell>
      </root>
    </mxGraphModel>
  </diagram>
</mxfile>
